<?xml version="1.0" encoding="iso-8859-1"?>
<!-- Uploaded to: SVG Repo, www.svgrepo.com, Generator: SVG Repo Mixer Tools -->
<svg height="800px" width="800px" version="1.1" id="Layer_1" xmlns="http://www.w3.org/2000/svg" xmlns:xlink="http://www.w3.org/1999/xlink" 
	 viewBox="0 0 512 512" xml:space="preserve">
<polygon style="fill:#D6E5F6;" points="306.526,154.952 272.843,491.79 111.16,491.79 77.476,154.952 "/>
<polygon style="fill:#BCD6F2;" points="306.526,154.952 192.001,154.952 192.001,491.79 272.843,491.79 "/>
<path style="fill:#E07188;" d="M192.001,512c-11.161,0-20.21-9.049-20.21-20.21V73.569L95.954,38.566
	c-10.133-4.678-14.558-16.686-9.88-26.819c4.678-10.135,16.684-14.56,26.819-9.881l87.578,40.421
	c7.158,3.304,11.741,10.469,11.741,18.351V491.79C212.212,502.952,203.164,512,192.001,512z"/>
<polygon style="fill:#E17858;" points="192.001,249.266 86.908,249.266 111.16,491.79 192.001,491.79 272.843,491.79 
	297.095,249.266 "/>
<polygon style="fill:#DD512A;" points="192.001,249.266 192.001,491.79 272.843,491.79 297.095,249.266 "/>
<path style="fill:#F4D853;" d="M303.279,204.685c13.821,11.036,31.342,17.634,50.405,17.634c44.647,0,80.841-36.194,80.841-80.841
	s-36.194-80.841-80.841-80.841s-80.841,36.194-80.841,80.841c0,4.592,0.381,9.093,1.118,13.476"/>
<path style="fill:#DD512A;" d="M353.684,242.53c-22.83,0-45.209-7.832-63.017-22.051c-8.723-6.966-10.146-19.682-3.181-28.405
	c6.967-8.723,19.681-10.146,28.405-3.181c10.826,8.646,23.895,13.218,37.793,13.218c33.432,0,60.631-27.2,60.631-60.631
	c0-33.432-27.199-60.631-60.631-60.631c-33.433,0-60.631,27.198-60.631,60.631c0,3.407,0.282,6.815,0.838,10.125
	c1.851,11.007-5.571,21.43-16.579,23.281c-11.021,1.851-21.432-5.574-23.281-16.581c-0.928-5.517-1.399-11.179-1.399-16.826
	c0-55.72,45.33-101.052,101.052-101.052c55.72,0,101.052,45.332,101.052,101.052C454.735,197.198,409.405,242.53,353.684,242.53z"/>
<path style="fill:#8CB7E8;" d="M272.843,512H111.16c-10.383,0-19.077-7.869-20.111-18.2L57.366,156.962
	c-0.569-5.682,1.293-11.339,5.125-15.573c3.832-4.235,9.275-6.649,14.985-6.649h229.05c5.71,0,11.153,2.414,14.985,6.649
	c3.832,4.233,5.694,9.891,5.125,15.573L292.953,493.8C291.921,504.132,283.225,512,272.843,512z M129.452,471.58h125.102
	l29.642-296.418H99.81L129.452,471.58z"/>
<path style="fill:#6398DE;" d="M321.512,141.39c-3.832-4.235-9.275-6.649-14.985-6.649H192.001v40.421h92.193L254.552,471.58
	h-62.551V512h80.841c10.383,0,19.077-7.869,20.111-18.2l33.684-336.839C327.206,151.281,325.344,145.623,321.512,141.39z"/>
</svg>